<?xml version="1.0" encoding="UTF-8" standalone="no"?>
<!-- Created with Inkscape (http://www.inkscape.org/) -->
<svg
   xmlns:svg="http://www.w3.org/2000/svg"
   xmlns="http://www.w3.org/2000/svg"
   version="1.0"
   width="56"
   height="61"
   id="svg2">
  <defs
     id="defs5" />
  <g
     transform="translate(7.1250446e-2,-1.1063401)"
     id="g3183">
    <path
       d="M 6.8229653,50.82911 L 42.434995,9.3096355 C 47.702501,3.1683375 54.592673,10.157626 49.347845,15.051227 L 9.0208164,52.677702 C 6.575223,54.959523 4.6869676,53.319435 6.8229653,50.82911 z"
       id="path2404"
       style="fill:#000000;fill-opacity:1;fill-rule:evenodd;stroke:none;stroke-width:0.30000001;stroke-linecap:butt;stroke-linejoin:miter;stroke-miterlimit:4;stroke-dasharray:none;stroke-opacity:1" />
    <path
       d="M 45.744299,33.648786 C 45.744299,46.156504 36.5361,56.307696 25.190282,56.307696 C 13.844464,56.307696 4.6362627,46.156504 4.6362627,33.648786 C 4.6362627,21.141069 13.844464,10.989878 25.190282,10.989878 C 36.5361,10.989878 45.744299,21.141069 45.744299,33.648786 z M 37.482737,31.915987 C 38.904981,42.74199 34.552247,52.304606 27.766811,53.261111 C 20.981376,54.217616 14.32007,46.207588 12.897825,35.381586 C 11.475581,24.555584 15.828316,14.992968 22.613752,14.036463 C 29.399187,13.079957 36.060493,21.089985 37.482737,31.915987 z"
       id="path3176"
       style="opacity:0.98999999;fill:#000000;fill-opacity:1;fill-rule:evenodd;stroke:none;stroke-width:0.27368066;stroke-linecap:round;stroke-linejoin:round;stroke-miterlimit:4;stroke-dashoffset:0;stroke-opacity:1" />
  </g>
</svg>
